<?xml version="1.0" encoding="UTF-8"?><svg id="Camada_2" xmlns="http://www.w3.org/2000/svg" viewBox="0 0 499 320"><defs><style>.cls-1,.cls-2{fill:none;}.cls-2{stroke:#274b41;}</style></defs><g id="Camada_1-2"><path class="cls-2" d="M202.5,164.45V28.08c0-15.24,12.33-27.58,27.55-27.58h193.32c9.94,0,18,8.07,18,18.02v11.35c0,12.6,10.21,22.81,22.79,22.81h9.82c13.54,0,24.52,10.99,24.52,24.54v175.07c0,11.61-9.4,21.02-21,21.02h-16.93c-7.51,0-13.6,6.1-13.6,13.62v12.91c0,10.86-8.79,19.66-19.64,19.66h-62.33c-13.16,0-23.83-10.68-23.83-23.85v-81.89c0-11.9-9.63-21.54-21.52-21.54h-89.4c-15.32,0-27.74-12.43-27.74-27.78Z"/><path d="M255.87,47.95h7.76v25.05h-7.76v-25.05ZM268.74,54.85h6.48v2.96c.97-1.21,1.95-2.07,2.94-2.58.99-.52,2.2-.79,3.62-.79,1.93,0,3.43.58,4.51,1.73,1.09,1.14,1.64,2.91,1.64,5.3v11.54h-6.99v-9.98c0-1.14-.21-1.94-.63-2.41-.42-.48-1.01-.72-1.78-.72-.84,0-1.53.32-2.05.96-.52.64-.79,1.78-.79,3.44v8.72h-6.96v-18.15ZM290.85,67.98l6.9-.65c.29.82.68,1.41,1.2,1.76.51.35,1.2.53,2.05.53.93,0,1.66-.2,2.17-.6.4-.3.6-.67.6-1.11,0-.5-.26-.89-.79-1.16-.38-.19-1.37-.43-2.99-.72-2.42-.42-4.1-.81-5.04-1.16-.93-.36-1.73-.97-2.38-1.83-.64-.85-.96-1.83-.96-2.92,0-1.2.35-2.23,1.04-3.09.7-.87,1.65-1.51,2.87-1.93,1.22-.43,2.85-.65,4.9-.65,2.16,0,3.76.17,4.79.5,1.04.33,1.9.84,2.58,1.54.7.69,1.27,1.63,1.73,2.82l-6.6.65c-.17-.58-.46-1.01-.86-1.28-.55-.36-1.21-.55-1.98-.55s-1.36.14-1.73.43c-.35.27-.53.61-.53,1.01,0,.44.23.78.68,1.01.46.23,1.45.43,2.97.62,2.31.26,4.03.63,5.16,1.09,1.13.47,1.99,1.13,2.58,2,.6.87.9,1.82.9,2.85s-.32,2.07-.96,3.06c-.63.99-1.62,1.78-2.99,2.38-1.36.58-3.21.87-5.55.87-3.32,0-5.68-.47-7.09-1.42-1.4-.95-2.3-2.29-2.7-4.03ZM313.74,47.95h6.96v4.73h-6.96v-4.73ZM313.74,54.85h6.96v18.15h-6.96v-18.15ZM337.77,54.85h6.51v17.14l.02.8c0,1.14-.24,2.22-.74,3.25-.48,1.04-1.12,1.87-1.93,2.51-.8.64-1.82,1.1-3.06,1.38-1.23.28-2.64.43-4.24.43-3.65,0-6.15-.55-7.52-1.64-1.36-1.09-2.03-2.56-2.03-4.39,0-.23.01-.54.04-.92l6.75.77c.17.63.43,1.06.79,1.3.51.35,1.16.53,1.93.53,1,0,1.75-.27,2.24-.8.5-.54.75-1.47.75-2.8v-2.75c-.68.81-1.37,1.4-2.05,1.76-1.07.57-2.23.85-3.47.85-2.43,0-4.39-1.06-5.88-3.18-1.06-1.5-1.59-3.49-1.59-5.96,0-2.83.68-4.98,2.05-6.46,1.37-1.48,3.15-2.22,5.37-2.22,1.41,0,2.57.24,3.49.72.92.48,1.78,1.27,2.58,2.38v-2.68ZM331.22,63.65c0,1.31.28,2.28.84,2.92.56.63,1.29.94,2.2.94s1.59-.32,2.17-.97c.59-.66.89-1.65.89-2.97s-.31-2.33-.92-3.02c-.62-.71-1.37-1.06-2.26-1.06s-1.6.32-2.14.97c-.52.64-.79,1.7-.79,3.2ZM348.48,47.95h6.96v9.23c.94-.98,1.88-1.68,2.82-2.1.93-.42,2.04-.63,3.32-.63,1.89,0,3.38.58,4.46,1.73,1.09,1.15,1.64,2.92,1.64,5.3v11.54h-6.99v-9.98c0-1.14-.21-1.94-.63-2.41-.42-.48-1.01-.72-1.78-.72-.84,0-1.53.32-2.05.96-.52.64-.79,1.78-.79,3.44v8.72h-6.96v-25.05ZM380.22,47.95v6.9h3.83v5.08h-3.83v6.44c0,.77.07,1.29.22,1.54.23.39.63.58,1.2.58.51,0,1.23-.15,2.15-.44l.51,4.8c-1.72.38-3.33.56-4.82.56-1.73,0-3.01-.22-3.83-.67-.82-.44-1.43-1.12-1.83-2.02-.39-.91-.58-2.38-.58-4.41v-6.39h-2.56v-5.08h2.56v-3.33l6.97-3.57ZM386.15,67.98l6.9-.65c.29.82.68,1.41,1.2,1.76.51.35,1.2.53,2.05.53.93,0,1.66-.2,2.17-.6.4-.3.6-.67.6-1.11,0-.5-.26-.89-.79-1.16-.38-.19-1.37-.43-2.99-.72-2.42-.42-4.1-.81-5.04-1.16-.93-.36-1.73-.97-2.38-1.83-.64-.85-.96-1.83-.96-2.92,0-1.2.35-2.23,1.04-3.09.7-.87,1.65-1.51,2.87-1.93,1.22-.43,2.85-.65,4.9-.65,2.16,0,3.76.17,4.79.5,1.04.33,1.9.84,2.58,1.54.7.69,1.27,1.63,1.73,2.82l-6.6.65c-.17-.58-.46-1.01-.85-1.28-.55-.36-1.21-.55-1.98-.55s-1.36.14-1.73.43c-.35.27-.53.61-.53,1.01,0,.44.23.78.68,1.01.46.23,1.45.43,2.97.62,2.31.26,4.03.63,5.16,1.09,1.13.47,1.99,1.13,2.58,2,.6.87.9,1.82.9,2.85s-.32,2.07-.96,3.06c-.63.99-1.62,1.78-2.99,2.38-1.36.58-3.21.87-5.55.87-3.32,0-5.68-.47-7.09-1.42-1.4-.95-2.3-2.29-2.7-4.03Z"/><rect class="cls-1" y="0" width="202.5" height="153.89"/></g></svg>