<svg width="46" height="50" viewBox="0 0 46 50" fill="none" xmlns="http://www.w3.org/2000/svg">
<rect x="0.5" y="0.5" width="45" height="49" rx="10.5" stroke="#274B41"/>
<mask id="mask0_11_3253" style="mask-type:luminance" maskUnits="userSpaceOnUse" x="11" y="13" width="24" height="24">
<path d="M35 13H11V37H35V13Z" fill="white"/>
</mask>
<g mask="url(#mask0_11_3253)">
<path d="M35 25C35 18.3726 29.6275 13 23 13C16.3726 13 11 18.3726 11 25C11 30.9894 15.3882 35.954 21.125 36.8542V28.4687H18.0781V25H21.125V22.3563C21.125 19.3488 22.9166 17.6875 25.6575 17.6875C26.9701 17.6875 28.3437 17.9219 28.3437 17.9219V20.875H26.8306C25.34 20.875 24.875 21.8001 24.875 22.75V25H28.2031L27.6711 28.4687H24.875V36.8542C30.6118 35.954 35 30.9894 35 25Z" fill="#274B41"/>
</g>
</svg>
